Motion_pl08
version=1
nRows=5
nColumns=43
inDegrees=yes
endheader
time	pelvis_tilt	pelvis_list	pelvis_rotation	pelvis_tx	pelvis_ty	pelvis_tz	hip_flexion_r	hip_adduction_r	hip_rotation_r	knee_angle_r	ankle_angle_r	subtalar_angle_r	mtp_angle_r	hip_flexion_l	hip_adduction_l	hip_rotation_l	knee_angle_l	ankle_angle_l	subtalar_angle_l	mtp_angle_l	lumbar_extension	lumbar_bending	lumbar_rotation	neck_flexion	neck_lateral_bending	neck_rotation	arm_flex_r	arm_add_r	arm_rot_r	elbow_flex_r	pro_sup_r	wrist_flex_r	wrist_dev_r	hand_finger_flex_r	arm_flex_l	arm_add_l	arm_rot_l	elbow_flex_l	pro_sup_l	wrist_flex_l	wrist_dev_l	hand_finger_flex_l
      0.54000000	      0.47213471	      4.26488567	     86.72554349	      0.03346041	      1.42219070	      0.87106238	     42.50095076	     -0.98086450	     -0.71793658	    -56.36899398	    -12.57990842	     -3.84476992	     -1.83436733	     38.56183776	    -10.02000246	     -9.98916362	    -37.29354903	    -27.80654822	      3.72463302	      9.38758888	    -41.88264251	     -3.22565441	      2.75066649	      1.23255863	      4.14087070	     -3.61838837	    -29.00420608	    -26.26927074	    -19.50396614	     71.34724445	    102.93064878	     -3.85549094	    -17.80117499	     -9.47678119	    -26.14216405	    -28.37878410	     -2.35913864	     45.58463212	    117.86355877	    -22.60570114	     -8.13091460	     -7.10359157
      0.54250000	      0.50456040	      4.37940272	     86.67579193	      0.03320930	      1.41477134	      0.86410109	     41.86752113	     -1.05435553	     -1.03456119	    -55.26093227	    -12.88390576	     -3.77640657	     -2.00036192	     37.86983601	    -10.07545563	    -10.44389164	    -36.35371165	    -28.01128496	      3.77733020	      9.34984541	    -41.40583541	     -3.18320546	      2.82776437	      0.17133289	      4.05170919	     -3.55876780	    -30.77102190	    -26.03055039	    -19.83906459	     71.78457981	    102.82318358	     -3.91382623	    -18.04565687	     -9.73093465	    -27.78789830	    -27.99104625	     -2.72330611	     45.77100511	    117.59121394	    -22.93912640	     -8.18493867	     -7.34313601
      0.54500000	      0.53678233	      4.54173141	     86.62298044	      0.03296033	      1.40737586	      0.85705019	     41.15232163	     -1.09690428	     -1.30712953	    -54.11748036	    -12.94357329	     -3.70235219	     -3.72806174	     37.09386106	    -10.15575644	    -11.01294548	    -35.40007707	    -28.14455357	      4.03683803	      9.68970626	    -40.97818157	     -3.14413928	      2.78674180	     -0.87774535	      3.99572153	     -3.32949917	    -32.45128351	    -25.99023849	    -19.98343116	     72.25733904	    102.58050326	     -2.62407797	    -18.01297948	    -13.18552711	    -29.54751924	    -27.57342507	     -3.19736335	     46.02521061	    116.09385624	    -22.40273722	     -8.47524030	     -9.25884450
      0.54750000	      0.55826524	      4.63594978	     86.57210830	      0.03268087	      1.39975835	      0.85008123	     40.56745880	     -1.19588082	     -1.69100470	    -53.03607621	    -13.36033274	     -3.61613313	     -3.84317777	     36.41215299	    -10.16928021	    -11.43863049	    -34.43865565	    -28.29384277	      4.04585256	      9.65038455	    -40.48163260	     -3.09929886	      2.86682347	     -1.90184025	      3.85378965	     -3.31238501	    -34.24540862	    -25.69778974	    -20.38645051	     72.76147455	    102.57508532	     -2.70778785	    -18.30802712	    -13.29696425	    -31.24032611	    -27.21163517	     -3.50848614	     46.36188629	    115.98565533	    -22.80798505	     -8.56908992	     -9.41960700
      0.55000000	      0.57886676	      4.73031771	     86.50372902	      0.03239144	      1.39210402	      0.84305612	     39.95228331	     -1.27654601	     -2.05259901	    -51.89715430	    -13.78544646	     -3.54027891	     -3.96650654	     35.70377950	    -10.19471037	    -11.93793100	    -33.45045477	    -28.41479324	      4.10653537	      9.62196660	    -39.98071124	     -3.05839313	      2.94914126	     -2.94540594	      3.73474667	     -3.27188594	    -36.03445213	    -25.44473546	    -20.73238560	     73.26727279	    102.57657502	     -2.81334934	    -18.55517273	    -13.43764075	    -32.89349134	    -26.78050496	     -3.89248554	     46.66226777	    115.76084852	    -23.16243414	     -8.61768074	     -9.57990438
